<svg xmlns="http://www.w3.org/2000/svg" width="25.005" height="27.914" viewBox="0 0 25.005 27.914">
  <path id="shape" d="M507.559,19.4a10.8,10.8,0,0,1,9.752,5.936.259.259,0,0,1-.23.378H498.038a.26.26,0,0,1-.231-.379,10.8,10.8,0,0,1,9.751-5.935m0-2.718a13.546,13.546,0,0,0-12.165,7.4h0a2.978,2.978,0,0,0,2.645,4.345h19.043a2.977,2.977,0,0,0,2.644-4.344,13.545,13.545,0,0,0-12.166-7.405m0-13.447A4.468,4.468,0,1,1,503.093,7.7a4.468,4.468,0,0,1,4.468-4.468m0-2.718A7.185,7.185,0,1,0,514.746,7.7,7.194,7.194,0,0,0,507.561.519" transform="translate(-495.057 -0.519)" fill="#fff"/>
</svg>
