<svg xmlns="http://www.w3.org/2000/svg" viewBox="0 0 150 150"><path d="M92.83 92.34c-.41.45-.84.87-1.29 1.29.2-.6.68-1.09 1.29-1.29m39.48-15.89c0 10.68-2.97 20.67-8.12 29.2a57.16 57.16 0 0 1-19.4 19.37 56.311 56.311 0 0 1-29.14 8.08c-31.25 0-56.67-25.41-56.67-56.65 0-10.98 3.14-21.24 8.58-29.92a56.902 56.902 0 0 1 18.3-18.26 56.335 56.335 0 0 1 29.79-8.48c31.24 0 56.66 25.42 56.66 56.66Zm-80.9-16.66c2.05-2.97 4.62-5.55 7.59-7.59-.73-3.25-1.68-6.56-2.69-9.68l-.92-2.46-.98-2.4c-.9-1.89-.79-4.43-1.62-6.41a50.942 50.942 0 0 0-22.35 22.33c.3.14.62.24.98.33 1.74.41 3.82.58 5.45 1.29l2.4.98c3.91 1.48 8 2.69 12.14 3.61Zm40.13 33.84c.45-.42.88-.84 1.29-1.29s0-.01 0-.01c3.85-4.18 6.22-9.75 6.22-15.88 0-12.92-10.51-23.43-23.42-23.43-5.89 0-11.29 2.19-15.41 5.81-.78.68-1.52 1.42-2.2 2.2a23.289 23.289 0 0 0-5.81 15.42c0 12.91 10.51 23.41 23.42 23.41 6.12 0 11.71-2.37 15.89-6.23Zm29.21 5.88c-.15-.05-.3-.09-.46-.13-1.74-.41-3.82-.58-5.45-1.29l-2.4-.98a88.58 88.58 0 0 0-12.75-3.74 29.279 29.279 0 0 1-7.11 7.11c.74 3.44 1.74 6.97 2.83 10.29l.91 2.46.98 2.4c.83 1.73.8 4.01 1.43 5.9a51.016 51.016 0 0 0 22.02-22.02ZM75.61 67.49c-4.94 0-8.95 4.01-8.95 8.95s4.01 8.96 8.95 8.96 8.96-4.02 8.96-8.96-4.02-8.95-8.96-8.95Z" style="fill: rgb(255, 255, 255);"></path></svg>