<svg xmlns="http://www.w3.org/2000/svg" width="54.211" height="54.176" viewBox="0 0 54.211 54.176">
  <path id="shape" d="M22.221,43.082V43.1A11.063,11.063,0,0,1,11.149,54.176h-.077A11.062,11.062,0,0,1,0,43.1v-.022A11.062,11.062,0,0,1,11.072,32.01h.077A11.063,11.063,0,0,1,22.221,43.082M15.91,15.96a2.74,2.74,0,0,0-3.157,2.707v.565a2.74,2.74,0,0,0,2.309,2.7A20.95,20.95,0,0,1,32.273,39.143a2.739,2.739,0,0,0,2.7,2.307h.56a2.739,2.739,0,0,0,2.707-3.155A26.615,26.615,0,0,0,15.91,15.96M41.9,12.312A42.589,42.589,0,0,0,15.743.012a2.739,2.739,0,0,0-2.989,2.727v.554A2.739,2.739,0,0,0,15.241,6.02,36.449,36.449,0,0,1,48.184,38.961a2.738,2.738,0,0,0,2.727,2.488h.56A2.738,2.738,0,0,0,54.2,38.46,42.577,42.577,0,0,0,41.9,12.312" transform="translate(0 0)" fill="#e84127"/>
</svg>
