<svg xmlns="http://www.w3.org/2000/svg" width="57.991" height="72" viewBox="0 0 57.991 72">
  <path id="shape" d="M263.73,68.225q-.136-.189-.262-.386a8.894,8.894,0,0,1-1.233-3.034q-.048-.235-.083-.472t-.058-.491c-.014-.158-.024-.316-.03-.475s-.007-.327,0-.492a9.138,9.138,0,0,1,.074-1q.16-1.227.358-2.4.133-.781.282-1.538.167-.846.355-1.661.127-.553.264-1.094.322-1.27.695-2.464.176-.565.362-1.115.111-.326.226-.645.23-.639.474-1.256c.188-.475.384-.937.585-1.391q.352-.794.729-1.548.281-.559.575-1.1c.135-.245.272-.486.411-.724.165-.283.332-.564.5-.838.1-.168.211-.334.318-.5q.643-.986,1.337-1.885.52-.675,1.068-1.3a25.806,25.806,0,0,1,2.695-2.666c.134-.115.27-.228.407-.339a24.546,24.546,0,0,1,2.818-1.985c.119-.073.24-.144.361-.214A24.885,24.885,0,0,1,279.8,33.8q.722-.3,1.463-.564.167-.059.334-.115.9-.3,1.816-.54a17.229,17.229,0,0,1-4.306-3.044q-.21-.2-.414-.415-.408-.421-.786-.87a17.128,17.128,0,0,1-4.038-11.068q0-.224.006-.447c0-.044,0-.087,0-.131,0-.1.007-.209.012-.313,0-.054.007-.107.01-.161.006-.094.011-.188.018-.281,0-.055.01-.11.015-.165.007-.091.015-.183.024-.274.006-.057.013-.113.02-.171.01-.088.02-.177.031-.264.007-.058.016-.116.024-.174.011-.086.023-.172.036-.258.009-.057.019-.115.028-.172.014-.086.028-.171.043-.256.011-.057.022-.113.033-.17.016-.085.032-.171.049-.255.011-.057.025-.113.037-.17.018-.084.036-.168.055-.251.013-.057.028-.113.041-.169.02-.083.04-.167.062-.249.014-.055.03-.11.044-.165.022-.083.045-.167.068-.249.015-.054.032-.108.048-.161.025-.083.049-.166.075-.248l.051-.158c.027-.082.053-.165.082-.247.018-.052.036-.1.055-.155.028-.082.057-.164.088-.245l.058-.152c.031-.081.061-.163.094-.243.02-.051.04-.1.061-.15.033-.081.066-.162.1-.241.021-.049.042-.1.064-.146.035-.08.07-.161.107-.241l.067-.142q.056-.12.113-.239l.069-.14c.039-.079.079-.158.119-.237.024-.046.048-.091.072-.136.041-.078.083-.156.125-.234.024-.045.05-.09.075-.134.043-.078.087-.154.132-.231.025-.044.051-.087.077-.13.046-.077.092-.154.138-.23l.079-.126c.048-.076.1-.152.144-.227l.082-.124c.05-.075.1-.15.15-.224l.085-.122.155-.22.087-.119c.053-.073.107-.146.161-.217l.089-.116c.055-.071.11-.143.167-.213l.092-.114c.057-.07.114-.14.172-.209l.094-.111c.059-.069.117-.138.177-.205l.1-.109c.061-.067.121-.135.182-.2l.1-.107c.062-.066.124-.132.187-.2l.1-.1c.063-.065.127-.129.192-.192l.1-.1c.064-.063.129-.125.195-.187l.108-.1c.066-.061.132-.121.2-.181.036-.033.073-.065.109-.1.067-.059.136-.119.2-.177l.113-.1c.069-.058.138-.115.208-.171l.115-.092.212-.166.118-.091.214-.159.122-.089.217-.154L281.352,3c.072-.05.146-.1.219-.148l.129-.085.221-.142.132-.082c.074-.046.149-.09.224-.135l.136-.081c.075-.043.15-.086.225-.128l.14-.078c.076-.042.152-.082.228-.123l.142-.076.23-.117.146-.072c.077-.038.154-.074.232-.111l.149-.07.232-.1.154-.067c.077-.034.155-.065.233-.1l.158-.064.233-.091.162-.061.235-.085.165-.058c.078-.027.156-.053.235-.078l.17-.055c.078-.025.156-.049.235-.071l.174-.052c.078-.023.156-.044.235-.065l.179-.048L286.942.5l.182-.045L287.359.4l.186-.04.235-.047.189-.036c.079-.015.158-.028.237-.04L288.4.2l.238-.034.194-.027.238-.028.2-.022L289.5.07l.2-.018.241-.016.2-.013.243-.009.2-.008.25,0,.2,0q.218,0,.436,0a16.974,16.974,0,0,1,5.921,1.215l.229.093a17.183,17.183,0,0,1,2.28,1.159q.3.18.588.372.35.232.689.48.441.324.861.674c.136.113.268.228.4.345q.379.336.738.693c.094.094.188.19.28.286.185.192.365.39.541.591q.527.6,1,1.254.235.326.455.662.11.168.217.339.212.341.409.693.1.176.192.354c.169.32.327.645.476.977.04.091.081.182.12.274a16.835,16.835,0,0,1,.722,2.027c.021.074.042.146.061.22a17.168,17.168,0,0,1-3.341,15.42q-.382.462-.8.9c-.208.219-.425.431-.644.639q-.208.2-.423.387a17.227,17.227,0,0,1-3.745,2.529,25.535,25.535,0,0,1,6.2,2.485q.673.38,1.326.806.435.283.86.587t.84.627q.623.487,1.221,1.018t1.172,1.111q.381.386.753.793.556.61,1.086,1.269c.19.236.376.478.56.724.044.059.089.116.133.175q.17.231.337.466.5.707.974,1.463c.144.23.285.465.424.7q.657,1.116,1.252,2.336c.122.252.243.5.361.763a48.461,48.461,0,0,1,3.783,13.97A8.995,8.995,0,0,1,311.036,72H271.072a9.009,9.009,0,0,1-7.342-3.775" transform="translate(-262.058)" fill="#fff"/>
</svg>
