<svg xmlns="http://www.w3.org/2000/svg" width="22.496" height="20.586" viewBox="0 0 22.496 20.586">
  <path id="shape.next" d="M283.35,10.324a2.305,2.305,0,0,1-.833,1.779c-2.266,1.887-7.943,6.617-9.817,8.184a1.285,1.285,0,1,1-1.649-1.972c1.812-1.515,7.178-5.985,9.582-7.988-2.477-2.054-7.852-6.506-9.714-8A1.285,1.285,0,0,1,272.526.323c1.94,1.554,7.631,6.269,9.988,8.224a2.307,2.307,0,0,1,.837,1.777M262.539,20.519a1.337,1.337,0,0,1-.2.022c-.012,0-.023,0-.035,0h-.013a1.293,1.293,0,0,1-.24-.024l-.023,0a1.3,1.3,0,0,1-.212-.065l-.033-.013a1.3,1.3,0,0,1-.189-.1l-.031-.021a1.26,1.26,0,0,1-.168-.137l-.021-.023c-.023-.023-.046-.046-.067-.072s-.021-.032-.032-.048a1.279,1.279,0,0,1-.079-.116c-.02-.033-.039-.067-.056-.1a1.266,1.266,0,0,1-.05-.119c-.014-.039-.027-.079-.038-.119s-.017-.078-.024-.118a1.257,1.257,0,0,1-.015-.134c0-.02-.006-.038-.006-.058L260.854,1.3c0-.019,0-.037,0-.055a1.335,1.335,0,0,1,.013-.136c.006-.04.012-.079.021-.118a1.255,1.255,0,0,1,.036-.12c.014-.041.029-.08.047-.119s.035-.07.055-.1a1.246,1.246,0,0,1,.076-.116c.011-.015.018-.031.03-.046s.029-.028.043-.044a1.324,1.324,0,0,1,.1-.1c.03-.028.06-.053.092-.078s.068-.048.1-.07a1.2,1.2,0,0,1,.108-.06c.037-.018.075-.033.114-.048s.079-.028.12-.038.078-.018.118-.025a1.257,1.257,0,0,1,.135-.015c.021,0,.04-.006.061-.007h.011c.017,0,.032,0,.049,0a1.285,1.285,0,0,1,.136.014c.039.006.078.012.116.021a1.2,1.2,0,0,1,.121.037c.04.014.08.029.118.046s.069.036.1.056a1.307,1.307,0,0,1,.116.075c.014.011.03.017.043.028,1.959,1.569,7.637,6.274,9.987,8.224a2.311,2.311,0,0,1,0,3.556c-2.266,1.887-7.943,6.617-9.817,8.184-.017.014-.036.024-.053.037s-.058.042-.088.061a1.285,1.285,0,0,1-.119.066c-.03.015-.06.029-.091.042a1.224,1.224,0,0,1-.142.045c-.029.008-.056.017-.086.023m8.511-10.233c-1.54-1.277-5.09-4.219-7.6-6.279l.107,12.524c2.379-1.984,5.732-4.778,7.5-6.246" transform="translate(-260.854)" fill="#fff"/>
</svg>
