<svg xmlns="http://www.w3.org/2000/svg" width="72" height="47.795" viewBox="0 0 72 47.795">
  <path id="icon.app" d="M72,6.491V41.3a6.516,6.516,0,0,1-6.5,6.491H18.294a6.167,6.167,0,0,1-.793-.05,6.905,6.905,0,0,1-3.952-.709l-10.3-5.269a5.931,5.931,0,0,1-1.273-9.706l9.835-8.83V6.491A6.51,6.51,0,0,1,18.294,0H65.5A6.516,6.516,0,0,1,72,6.491M33.731,23.871a5.041,5.041,0,1,0-5.041,5.041,5.041,5.041,0,0,0,5.041-5.041m14.272,0a5.041,5.041,0,1,0-5.041,5.041A5.04,5.04,0,0,0,48,23.871m14.206,0a5.041,5.041,0,1,0-5.041,5.041,5.04,5.04,0,0,0,5.041-5.041" transform="translate(0)" fill="#fff"/>
</svg>
