<svg xmlns="http://www.w3.org/2000/svg" width="102" height="71.158" viewBox="0 0 102 71.158">
  <path id="DOM999" d="M79.684,46.6a4.38,4.38,0,0,0-1.425,2.922,6.264,6.264,0,0,0-.057.831,3.93,3.93,0,0,0,.677,2.318,3.761,3.761,0,0,0,2.738,1.488,3.83,3.83,0,0,0,3.055-.719,4.245,4.245,0,0,0,1.441-2.875,6.428,6.428,0,0,0,.058-.849,3.907,3.907,0,0,0-.692-2.346,3.835,3.835,0,0,0-2.761-1.491,5.549,5.549,0,0,0-.729-.05,3.493,3.493,0,0,0-2.3.771m-62.7-2.084a3.772,3.772,0,0,0-2.8,1.366,4.068,4.068,0,0,0-.78,2.567q0,.288.027.595a4.308,4.308,0,0,0,1.293,2.937,3.764,3.764,0,0,0,3,.854,3.83,3.83,0,0,0,2.823-1.369,4,4,0,0,0,.8-2.566q0-.269-.026-.554A4.313,4.313,0,0,0,20,45.367a3.63,3.63,0,0,0-2.507-.874q-.249,0-.513.023m30.021.776a4.367,4.367,0,0,0-1.029,3.084,4.3,4.3,0,0,0,1.029,3.04,3.762,3.762,0,0,0,2.911,1.115,3.833,3.833,0,0,0,2.934-1.115,4.247,4.247,0,0,0,1.05-3.04,4.311,4.311,0,0,0-1.05-3.084,3.837,3.837,0,0,0-2.934-1.113,3.765,3.765,0,0,0-2.911,1.113M42.337,54.97a8.841,8.841,0,0,1-2.355-6.339q0-4.667,2.782-7.066a10.46,10.46,0,0,1,7.152-2.44,10.626,10.626,0,0,1,7.195,2.4q2.785,2.4,2.784,7.066,0,2.912-2.742,8.438l-5.738,11.6a.855.855,0,0,1-.7.437H46.055a.72.72,0,0,1-.7-1.138l5.18-10.145c.215-.422.015-.676-.445-.554a7.844,7.844,0,0,1-1.976.23,7.657,7.657,0,0,1-5.782-2.484m-6.077-23.8a1.955,1.955,0,0,0-1.954,1.954V76.108a1.964,1.964,0,0,0,.532,1.34,1.95,1.95,0,0,0,.794.51,1.915,1.915,0,0,0,.629.1H61.911a2.91,2.91,0,0,1-.225-.264,3.364,3.364,0,0,1-.67-2.512l4.554-34.274V33.12a1.955,1.955,0,0,0-1.954-1.954ZM79.187,58.8a7.658,7.658,0,0,1-5.405-3.223,8.842,8.842,0,0,1-1.5-6.6q.614-4.626,3.69-6.639a10.456,10.456,0,0,1,7.41-1.477A10.63,10.63,0,0,1,90.2,44.2q2.445,2.743,1.829,7.373-.384,2.885-3.829,8L80.985,70.312a.858.858,0,0,1-.752.341l-4.621-.615a.72.72,0,0,1-.541-1.219l6.471-9.372c.269-.393.1-.67-.367-.61a6.569,6.569,0,0,1-.818.049,8.986,8.986,0,0,1-1.171-.082M68.7,32.863l-1.1,8.243-.72,5.423-.722,5.433L63.037,75.478a1.956,1.956,0,0,0,1.68,2.194l.557.073.942.126.825.109,24.794,3.3a2,2,0,0,0,.259.016,1.954,1.954,0,0,0,1.935-1.7L99.692,36.98a1.957,1.957,0,0,0-1.679-2.194l-27.12-3.6a1.978,1.978,0,0,0-.259-.018,1.958,1.958,0,0,0-1.935,1.7M10.386,55.934A8.832,8.832,0,0,1,7.48,49.828q-.411-4.65,2.15-7.284a10.453,10.453,0,0,1,6.91-3.061,10.639,10.639,0,0,1,7.379,1.754q2.983,2.144,3.4,6.794.254,2.9-1.987,8.647L20.632,68.736a.854.854,0,0,1-.659.5l-4.644.411a.719.719,0,0,1-.794-1.071L18.8,58.009c.178-.44-.044-.675-.491-.513a7.724,7.724,0,0,1-1.948.4q-.4.036-.793.036a7.6,7.6,0,0,1-5.184-2m19.1-25.586L2.234,32.757A1.956,1.956,0,0,0,.461,34.876L4.249,77.7a1.954,1.954,0,0,0,1.943,1.781c.059,0,.116,0,.174-.008L32.071,77.2a3.361,3.361,0,0,1-.095-.8V36.342l-.373-4.22a1.955,1.955,0,0,0-1.945-1.782c-.057,0-.116,0-.174.008M75.752,14.7l-.073,11.811a.392.392,0,0,0,.39.394l2.246.013a.392.392,0,0,0,.394-.39l.073-11.811a.394.394,0,0,0-.39-.395l-2.246-.013h0a.391.391,0,0,0-.392.39m16.794.023L90.852,28.748a.469.469,0,0,0,.411.522L99.781,30.3a.468.468,0,0,0,.522-.409l.249-2.06a.469.469,0,0,0-.409-.522l-5.387-.65.393-3.25,4.735.571a.469.469,0,0,0,.523-.409l.248-2.06a.469.469,0,0,0-.409-.522l-4.737-.571.331-2.732,5.386.65a.468.468,0,0,0,.522-.409l.25-2.06a.468.468,0,0,0-.409-.522l-8.52-1.029a.547.547,0,0,0-.057,0,.469.469,0,0,0-.465.413M81.9,14.6a6.944,6.944,0,0,0-1.958,4.606l-.205,1.953a6.413,6.413,0,0,0,.993,4.672,5.28,5.28,0,0,0,3.839,1.972,4.769,4.769,0,0,0,3.928-1.12,6.856,6.856,0,0,0,1.8-4.416l.114-1.09a.27.27,0,0,0-.238-.3l-4.321-.453a.177.177,0,0,0-.029,0,.265.265,0,0,0-.264.24l-.209,1.974a.276.276,0,0,0,.059.2.271.271,0,0,0,.181.1l1.464.153a.18.18,0,0,1,.127.073.185.185,0,0,1,.031.143c-.3,1.456-1.1,2.126-2.385,1.99a2.024,2.024,0,0,1-1.7-1.117,4.91,4.91,0,0,1-.3-2.7l.235-2.243a4.927,4.927,0,0,1,.856-2.575,2.026,2.026,0,0,1,1.9-.738,2.082,2.082,0,0,1,1.417.691,2.252,2.252,0,0,1,.513,1.1.266.266,0,0,0,.233.222l2.393.251a.272.272,0,0,0,.218-.078.269.269,0,0,0,.078-.218,5.076,5.076,0,0,0-1.219-2.937,5.075,5.075,0,0,0-3.371-1.535,7.315,7.315,0,0,0-.768-.042A4.949,4.949,0,0,0,81.9,14.6M64.384,12.849l-.342,11.806a.392.392,0,0,0,.38.4l2.063.06a.394.394,0,0,0,.4-.381l.191-6.579L71.4,25.087a.4.4,0,0,0,.321.184l1.844.054a.393.393,0,0,0,.4-.381l.342-11.806a.389.389,0,0,0-.38-.4l-2.064-.06a.391.391,0,0,0-.4.38l-.194,6.67-4.354-7.017a.391.391,0,0,0-.323-.186l-1.806-.052h-.012a.391.391,0,0,0-.391.38m-14.3-.556-7.169.284a.392.392,0,0,0-.376.408l.468,11.8a.39.39,0,0,0,.406.375l7.17-.284a.391.391,0,0,0,.375-.408l-.068-1.733a.392.392,0,0,0-.406-.376l-4.533.179-.109-2.735,3.985-.158a.392.392,0,0,0,.376-.408l-.068-1.734a.391.391,0,0,0-.407-.375l-3.985.157-.091-2.3,4.533-.179a.392.392,0,0,0,.376-.408l-.068-1.733a.393.393,0,0,0-.392-.377h-.015m2.636.315-.308,7.123a5.251,5.251,0,0,0,1.2,4.016,5.64,5.64,0,0,0,7.187.31,5.282,5.282,0,0,0,1.539-3.917l.306-7.1a.392.392,0,0,0-.375-.409l-2.244-.1a.391.391,0,0,0-.408.375l-.308,7.122a3.716,3.716,0,0,1-.546,2.06,1.994,1.994,0,0,1-2.954-.127,3.717,3.717,0,0,1-.367-2.1l.308-7.122a.392.392,0,0,0-.375-.409l-2.245-.1h-.018a.389.389,0,0,0-.39.374M3.458,20.849,3.243,18.5A5.173,5.173,0,0,1,3.6,15.668a2.137,2.137,0,0,1,1.816-1.156c1.669-.153,2.631,1.035,2.859,3.527l.214,2.352c.228,2.492-.5,3.834-2.173,3.985-.1.008-.188.013-.279.013-1.5,0-2.367-1.19-2.58-3.54m1.723-8.924a5.524,5.524,0,0,0-4.042,1.993,6.706,6.706,0,0,0-1.091,4.87l.214,2.352a6.7,6.7,0,0,0,1.963,4.582,5.517,5.517,0,0,0,4.328,1.24,5.517,5.517,0,0,0,4.033-2,6.693,6.693,0,0,0,1.1-4.861l-.215-2.351a6.706,6.706,0,0,0-1.953-4.6,5.253,5.253,0,0,0-3.605-1.263c-.238,0-.481.011-.732.034m17.457-.681-2.248.2a.43.43,0,0,0-.39.465l.646,7.265-5.627-7.06a.428.428,0,0,0-.373-.16l-1.967.174a.429.429,0,0,0-.39.466l1.142,12.861a.429.429,0,0,0,.465.388l2.248-.2a.429.429,0,0,0,.388-.465L15.9,18.011l5.58,6.965a.427.427,0,0,0,.372.16l2.008-.179a.427.427,0,0,0,.39-.465L23.1,11.632a.429.429,0,0,0-.426-.39l-.039,0m3.444-.854-.4,14.267a.265.265,0,0,0,.256.272L28.436,25a.256.256,0,0,0,.188-.072.259.259,0,0,0,.083-.184l.223-8.06a.21.21,0,0,1,.166-.2.207.207,0,0,1,.233.116L32.1,22.44a.259.259,0,0,0,.23.15l1.384.039a.264.264,0,0,0,.238-.137l3.161-5.746a.213.213,0,0,1,.184-.109.217.217,0,0,1,.055.008.209.209,0,0,1,.155.209l-.225,8.126a.257.257,0,0,0,.072.189.263.263,0,0,0,.184.082l2.492.07a.264.264,0,0,0,.271-.257L40.7,10.8a.257.257,0,0,0-.072-.189.264.264,0,0,0-.184-.082l-2.659-.073a.258.258,0,0,0-.238.134l-4.174,7.356a.217.217,0,0,1-.189.106A.212.212,0,0,1,33,17.931L29.22,10.352a.265.265,0,0,0-.228-.145l-2.639-.073h-.009a.263.263,0,0,0-.262.256" transform="translate(0 -10.134)" fill="#fff"/>
</svg>
