<svg xmlns="http://www.w3.org/2000/svg" width="27.895" height="20.557" viewBox="0 0 27.895 20.557">
  <path id="shape.now" d="M20.33,11.681a6.373,6.373,0,1,1-6.375-6.375,6.375,6.375,0,0,1,6.375,6.375M6.347,21.471a1.285,1.285,0,0,0-.2-1.807,10.289,10.289,0,0,1-3.577-8.047A10.362,10.362,0,0,1,6.016,3.679,1.285,1.285,0,1,0,4.366,1.707,12.954,12.954,0,0,0,0,11.618,12.874,12.874,0,0,0,4.541,21.671a1.285,1.285,0,0,0,1.807-.2m17.181.171a12.953,12.953,0,0,0,4.367-9.911A12.874,12.874,0,0,0,23.354,1.679a1.285,1.285,0,0,0-1.607,2.006,10.289,10.289,0,0,1,3.577,8.047,10.361,10.361,0,0,1-3.445,7.938,1.285,1.285,0,0,0,1.649,1.972" transform="translate(0 -1.396)" fill="#fff"/>
</svg>
