<?xml version="1.0" encoding="UTF-8"?>
<svg id="Layer_1" xmlns="http://www.w3.org/2000/svg" version="1.1" viewBox="0 0 1000 513.38">
  <!-- Generator: Adobe Illustrator 29.1.0, SVG Export Plug-In . SVG Version: 2.1.0 Build 142)  -->
  <defs>
    <style>
      .st0 {
        fill: #fff;
      }
    </style>
  </defs>
  <path id="DOM999" class="st0" d="M360.7,8.41c-10.87,0-19.68,8.82-19.69,19.69v433.01c.01,5.02,1.93,9.84,5.36,13.5,2.21,2.34,4.95,4.11,8,5.14,2.04.69,4.18,1.03,6.34,1.01h258.47c-.81-.84-1.56-1.73-2.27-2.66-5.55-7.19-7.98-16.31-6.75-25.31l45.88-345.31V28.01c0-10.87-8.82-19.68-19.69-19.69l-275.66.09ZM687.59,25.42l-11.08,83.05-7.25,54.64-7.27,54.74-31.44,236.92c-1.42,10.77,6.15,20.66,16.93,22.1l5.61.74,9.49,1.27,8.31,1.1,249.8,33.25c.87.11,1.74.16,2.61.16,9.87-.01,18.21-7.34,19.5-17.13l57.05-429.36c1.41-10.77-6.15-20.65-16.92-22.1L709.68,8.52c-.86-.12-1.74-.18-2.61-.18-9.87.03-18.19,7.35-19.5,17.13M292.48.06L17.94,24.35C7.12,25.33-.87,34.88.08,45.7l38.16,431.45c.9,10.14,9.39,17.93,19.58,17.94.59,0,1.17,0,1.75-.08l258.98-22.9c-.64-2.64-.96-5.34-.96-8.06V60.47l-3.76-42.52C312.93,7.8,304.43.01,294.24,0,293.66,0,293.07,0,292.48.08"/>
</svg>